<?xml version="1.0" encoding="utf-8"?>
<!-- Generator: Adobe Illustrator 24.0.1, SVG Export Plug-In . SVG Version: 6.00 Build 0)  -->
<svg version="1.1" id="Laag_1" xmlns="http://www.w3.org/2000/svg" xmlns:xlink="http://www.w3.org/1999/xlink" x="0px" y="0px"
	 viewBox="0 0 499.4 219.1" style="enable-background:new 0 0 499.4 219.1;" xml:space="preserve">

<path style="fill:#00C1FF;" d="M127.6,156.4c0,0,18.5-4.4,45.8-4c27.3,0.3,70.8,9.4,110.9,20.9c40.1,11.5,100.7,19.9,156-4.7
	c0,0-30.3,29.3-86.3,31.7c-55.9,2.4-125.7-25.3-167.1-29.7C145.4,166.1,127.6,156.4,127.6,156.4z"/>
<g>
	<path style="fill:#FFFFFF;" d="M100.1,130c-0.5,0.6-12,14.9-16,29.1c-4.1,14.8,5.7,28.2,6.2,28.8l2.6,3.5l13.4-59.2l-5-3.8L100.1,130z"/>
	<path style="fill:#FFFFFF;" d="M142.7,159.2c-4-14.2-15.9-28.9-16.4-29.5l-1.5-1.8l-4.2,4.7l13.4,58.9l2.6-3.5
		C136.9,187.5,146.8,174,142.7,159.2z"/>
</g>
<path style="fill:#FF5C00;" d="M149.1,60.8c2,0.3,15.7,1.5,12.6-10.7c-3.3-13.2-22.1-8.7-22.1-8.7c7.3-3.6,1.3-17.1-9.6-14.3
	c-4.8,1.2-8.3,4-10.5,6.8c-2.3-6.8-7.2-16-17.3-15.2c-15.9,1.3-4,19.1-4,19.1S79.1,20,64.6,37c-12.2,14.5,8.9,17.4,15.7,18
	c-6.3-0.3-26.2,0.1-30.1,14.4c-4.6,17.1,20.5,13.2,20.5,13.2s-16.2,8.7-12.4,23.2c3.8,14.5,21.9,6.1,21.9,6.1s-4.6,12.7,10.1,18.1
	c10.4,3.8,18.6-3.3,22.4-7.8c9.9,8.6,25.7,14.7,31.1,5.7c5.5-9.2-5.5-17.1-5.5-17.1s18.2,11.9,25.4-0.8c6.9-12.1-9.2-19.6-10.6-20.2
	c1.6,0.7,23.3,9.8,23-7.7C175.8,65,151.9,61.2,149.1,60.8z"/>
<path style="fill:#F7C5B2;" d="M101.6,131.3c0,0-11.7,14.4-15.6,28.4c-3.9,14,5.8,27.1,5.8,27.1l12.2-53.6L101.6,131.3z"/>
<path style="fill:#F7C5B2;" d="M124.7,131c0,0,12.1,14.8,16,28.8c3.9,14-5.8,27.1-5.8,27.1l-12.2-53.6L124.7,131z"/>
<path style="fill:#FFFFFF;" d="M134.9,164.4c-3-18.2-10.6-34.1-10.6-34.1l-9.5-0.3v-0.1l-1.4,0.1l-2.1-0.1l0,0.1l-9.2,0.4
	c0,0-7.6,15.9-10.6,34.1c-3,18.2-2.2,21.7-1.6,23.1c0.6,1.4,8.8,9.5,23.3,15.9l0-0.1c14.6-6.4,22.7-14.5,23.3-15.9
	C137.1,186.1,137.9,182.6,134.9,164.4z"/>
<path style="fill:#F7C5B2;" d="M141.3,75.6c-2.2-6.1-7.7-19.1-19.1-21.8c-11.4-2.7-23-0.6-31,10.9c-8,11.6-9.8,34.1-4.9,46.6
	c4.9,12.4,17.9,15.8,17.9,15.8v3.1l-0.2,0c0,0-2.3,4.1-2.4,7.3c-0.1,3.2,4.3,8.9,11.5,8.9c7.2,0,11.6-5.7,11.5-8.9
	c-0.1-3.2-2.4-7.3-2.4-7.3l-0.2-0.1v-3.8c0,0,8.5-1.2,16.8-10.8C147.6,105.3,143.5,81.7,141.3,75.6z"/>
<path style="fill:#FF5C00;" d="M79.8,100c0,0,0,0,0-0.1c0.5-1,4.2-9.2,3.8-18.5c0,0,28.3-2.2,46.3-18.3c0,0-10.2,14-12.5,15.5
	c-2.3,1.5,19.1-4.6,23-13.4c0,0,6.4,28.7,6.3,32.8c0,0,4.1-7.2,4.2-15.4c0.1-8.2-2.8-34.2-35.6-37.9C82.6,41.1,70,70.4,76.6,88.6
	L79.8,100z"/>
<path style="fill:#5BC1DB;stroke:#5BC1DB;stroke-width:0.3688;stroke-miterlimit:10;" d="M176.8,187c-20.2-5.3-41.4-15.5-75.8-18.5c-34.4-3-64,7.4-64,7.4s22.6-19.9,63.3-20.2
	c40.8-0.3,75.1,14.2,91,18.5c15.8,4.4,77.8,20.9,141.8-4.7C333.1,169.5,286.6,215.7,176.8,187z"/>
<path style="fill:#00AEFF;" d="M157.7,185c-15.5-5-33-10.8-57.1-12.9c-4-0.4-8.2-0.5-12.5-0.5c-7.5,0-14.6,0.6-21,1.4
	c-36.4,5.3-58.9,20.1-58.9,20.1c18.7-5.8,40.9-10.3,83.6-11.4c32.5-0.8,64.7,4.7,78.3,7.3C166.2,187.8,162,186.4,157.7,185z"/>
<path style="fill:#FFFFFF;stroke:#FFFFFF;stroke-width:1.0454;stroke-miterlimit:10;" d="M331.7,166.1c-22.8,9.1-47.7,13.7-74.1,13.7c-32.3,0-57.2-6.9-65.4-9.1c-3-0.8-6.7-2-11-3.5
	c-18.6-6.1-46.6-15.2-79.5-15.2c-0.5,0-1,0-1.4,0c-21.7,0.2-38.3,5.9-48.5,10.6c-11.1,5.2-17,10.3-17.3,10.5l-14.2,12.5l17.8-6.3
	c0.2-0.1,22.3-7.8,50-7.8c4.2,0,8.4,0.2,12.5,0.5c24.1,2.1,41.6,7.8,57.1,12.9c6.3,2.1,12.2,4,18.1,5.5c24.1,6.3,47.2,9.5,68.5,9.5
	c32.5,0,55.5-7.5,69-13.8c14.9-6.9,22-13.9,22.3-14.2l12.8-12.7L331.7,166.1z"/>
<path style="fill:#0365C4;" d="M176.8,187c-20.2-5.3-41.4-15.5-75.8-18.5c-34.4-3-64,7.4-64,7.4s22.6-19.9,63.3-20.2
	c40.8-0.3,75.1,14.2,91,18.5c15.8,4.4,77.8,20.9,141.8-4.7C333.1,169.5,286.6,215.7,176.8,187z"/>
<path style="fill:#00C1FF;" d="M461.2,158.3c0,0,2.8-6.7,11.2-10c8.4-3.3,16,3.7,14.1,7.6c-2,3.8-8.8,1.7-11.6,0.9
	C471.9,155.9,465.9,154.4,461.2,158.3z"/>
<path style="fill:#00C1FF;" d="M437,181.7c0,0,7.1-12.1,17.1-16.4c10-4.3,20.8-0.8,19.7,5.7c-1.1,6.5-13.6,6.4-17.9,6.4
	C451.6,177.3,444.2,178.8,437,181.7z"/>
<path style="fill:#00C1FF;" d="M444.5,165.5c0,0,1.4-6.6,5.6-9.4c4.2-2.8,6.5,2.4,3.3,3.9C450.2,161.5,445.7,164.1,444.5,165.5z"/>
<g>
	<path style="fill:#FFFFFF;" d="M105.4,90.4c0.7,2.8-1.1,5.6-4,6.4c-2.9,0.8-5.9-0.9-6.6-3.6c-0.7-2.8,1.1-5.6,4-6.4
		C101.7,86.1,104.7,87.7,105.4,90.4z"/>
	<path style="fill:#4D90CD;" d="M104,91.7c0,2.1-1.8,3.8-4,3.8c-2.2,0-4-1.7-4-3.8c0-2.1,1.8-3.8,4-3.8C102.2,87.9,104,89.6,104,91.7z"/>
	<path style="fill:#2D5CA6;" d="M103,91.6c0,1.6-1.3,2.9-2.8,2.9c-1.6,0-2.8-1.3-2.8-2.9c0-1.6,1.3-2.9,2.8-2.9C101.7,88.7,103,90,103,91.6z"
		/>
	<path style="fill:#FFFFFF;" d="M102.1,89.5c0,0.4-0.3,0.8-0.7,0.8c-0.4,0-0.7-0.4-0.7-0.8c0-0.4,0.3-0.8,0.7-0.8
		C101.8,88.7,102.1,89.1,102.1,89.5z"/>
</g>
<g>
	<path style="fill:#FFFFFF;" d="M129.6,89.7c0.7,2.8-1.1,5.6-4,6.4c-2.9,0.8-5.9-0.8-6.6-3.6c-0.7-2.8,1.1-5.6,4-6.4
		C125.9,85.3,128.9,86.9,129.6,89.7z"/>
	<path style="fill:#4D90CD;" d="M128.2,91c0,2.1-1.8,3.8-4,3.8c-2.2,0-4-1.7-4-3.8c0-2.1,1.8-3.8,4-3.8C126.4,87.2,128.2,88.9,128.2,91z"/>
	<path style="fill:#2D5CA6;" d="M127.1,91c0,1.6-1.3,2.9-2.8,2.9c-1.6,0-2.8-1.3-2.8-2.9c0-1.6,1.3-2.9,2.8-2.9
		C125.8,88.1,127.1,89.4,127.1,91z"/>
	<path style="fill:#FFFFFF;" d="M126.3,88.8c0,0.4-0.3,0.8-0.7,0.8c-0.4,0-0.7-0.4-0.7-0.8c0-0.4,0.3-0.8,0.7-0.8
		C126,88,126.3,88.4,126.3,88.8z"/>
</g>
<path style="fill:#EE8094;" d="M117.6,97c0,1.5-2.2,2.7-4.9,2.7c-2.7,0-4.9-1.2-4.9-2.7c0-1.5,2.2-2.7,4.9-2.7
	C115.4,94.3,117.6,95.5,117.6,97z"/>
<path style="fill:#D65D72;" d="M111.2,99.5c0,0-1.2-1.5-1.9-1.2c-0.6,0.3,0.2,0.8,0.4,0.9C109.9,99.3,111,99.7,111.2,99.5z"/>
<path style="fill:#D65D72;" d="M113.9,99.5c0,0,1.2-1.5,1.9-1.2c0.6,0.3-0.2,0.8-0.4,0.9C115.3,99.4,114.2,99.7,113.9,99.5z"/>
<radialGradient id="SVGID_1_" cx="12530.7334" cy="233.3356" r="31.3992" gradientTransform="matrix(0.2147 4.700000e-03 -4.700000e-03 0.2147 -2576.6765 -1.323191e-02)" gradientUnits="userSpaceOnUse">
	<stop  offset="0" style="stop-color:#8B283E"/>
	<stop  offset="1" style="stop-color:#4A1135"/>
</radialGradient>
<path style="fill:url(#SVGID_1_);" d="M121.1,104.6c-8.4,1.2-16.8,0-16.8,0s-0.1,1.9,1.1,4.2c0.5,1,1.3,2.1,2.4,3.2c0.7,0.7,1.5,1.2,2.3,1.4
	c-0.8-0.3-1.6-0.7-2.3-1.4c-0.1-0.1-0.2-0.1-0.2-0.2c0,0,1.1-1.6,3.7-1.7c0.1,0,0.2,0,0.3,0c2.3,0.1,4.7,1.8,4.9,2
	c0.7-0.5,1.3-1.1,1.9-1.7c0.9-1,1.4-2,1.9-2.9C120.9,105.9,121.1,104.6,121.1,104.6"/>
<path style="fill:#E7486C;" d="M111.6,110.1c-0.1,0-0.2,0-0.3,0c-2.6,0.1-3.6,1.7-3.7,1.7c0.1,0.1,0.2,0.2,0.2,0.2c0.7,0.7,1.5,1.2,2.3,1.4
	c0.6,0.2,1.1,0.3,1.7,0.3c1.6,0,3.2-0.6,4.7-1.7c0,0,0,0,0,0C116.2,111.9,113.9,110.2,111.6,110.1"/>
<path style="fill:#034DA9;" d="M146.9,45.8l-4.5-11.7c0,0,3.1-4.2,9.4-3.4l4.7,11L146.9,45.8z"/>
<path style="fill:#004C91;" d="M146.9,45.8c0,0,2.7-4.2,9.6-4.1C156.6,41.7,155.1,45.5,146.9,45.8z"/>
<path style="fill:#0365C4;" d="M117.4,117.4c0,0,1.6,6.5,7.8,6.7c8.9,0.3,14.7-12.7,18.1-19.7c4.6-9.3,14.1-36.9,5.9-58.7c0,0,0.4-2.1,3.2-2.9
	c2.8-0.8,2.9,1,2.9,1s6.8,20,1.5,42.2c-5.3,22.1-16.9,42.4-27.3,44.5c-8.4,1.7-17-1.9-19.1-12.1
	C110.3,118.5,112.7,115.7,117.4,117.4z"/>
<path style="fill:#034DA9;" d="M150.7,75.3c0,0,5.5-0.7,9.7,2l-2.8,9.1l-8.3-2.1L150.7,75.3z"/>
<path style="opacity:0.71;fill:#A0D3F0;" d="M112.6,74.3c-0.1,0-17.8,0.2-31.2,7.5c-2.5,1.4-4,3.9-4.3,7.4c-0.5,5.3,2,11.8,5.5,14.6c2.4,1.9,5.3,3,8,3
	c2.5,0,4.8-0.9,5.8-2.3c0.7-1,1.4-2.2,2.2-3.4c3-4.9,6.6-10.9,13.5-11.2c0.2,0,0.4,0,0.6,0c7.2,0,11,6.3,14.1,11.3
	c0.8,1.3,1.5,2.4,2.2,3.4c1,1.4,3.3,2.3,5.8,2.3h0c2.8,0,5.6-1.1,8-3c3.5-2.8,6-9.3,5.5-14.6c-0.3-3.5-1.7-6-4.3-7.4
	C130.6,74.4,112.7,74.3,112.6,74.3z"/>
<path style="fill:#0356A2;" d="M139.9,111.5c5.2-7.5,10-18.7,12.3-27.6C156,91.8,153.1,109,139.9,111.5z"/>
<path style="fill:#0365C4;" d="M146.3,77.6c-14.7-8-33.7-8.1-33.7-8.1s-18.8,0.1-33.5,8.1c-10.9,6-7.1,23.7,0.6,29.8
	c7.6,6.1,17.1,4.7,20.6-0.3c3.5-4.9,6.5-12.7,12.4-12.7v0c5.9,0,8.9,7.8,12.4,12.7c3.5,4.9,13,6.4,20.6,0.3
	C153.3,101.4,157.2,83.6,146.3,77.6z M142.8,103.7c-2.4,1.9-5.3,3-8,3h0c-2.5,0-4.8-0.9-5.8-2.3c-0.7-1-1.4-2.2-2.2-3.4
	c-3-5-6.8-11.2-14.1-11.3c-0.2,0-0.4,0-0.6,0c-6.8,0.3-10.5,6.4-13.5,11.2c-0.8,1.3-1.5,2.4-2.2,3.4c-1,1.4-3.3,2.3-5.8,2.3
	c-2.8,0-5.6-1.1-8-3c-3.5-2.8-6-9.3-5.5-14.6c0.3-3.5,1.7-6,4.3-7.4c13.4-7.4,31-7.5,31.2-7.5c0.2,0,18,0.1,31.5,7.5
	c2.5,1.4,4,3.9,4.3,7.4C148.7,94.4,146.3,101,142.8,103.7z"/>
<path style="fill:#C7E4F5;" d="M94.3,76.8l-9.7,28.2c0,0,2,1.3,5.4,1.7l10.9-31.3L94.3,76.8z"/>
<path style="fill:#FFFFFF;" d="M107.2,104.9c0,0,0.4,1.6,0.6,1.6c0.2,0,1.5,0.2,1.5,0.2s0,0.4,0.3,0.5c0.7,0.3,3.2,0.4,3.2,0.4
	s2.5,0.1,3.3-0.4l0.4-0.8c0,0,1.3-0.2,1.5-0.3c0.3-0.1,0.6-1.2,0.6-1.2S113.4,105.5,107.2,104.9z"/>
<path style="fill:#0365C4;" d="M111.8,121.5c0,0-4.6,0.8-5.3-1.8c-0.7-2.7,1.2-3.3,4.4-3.2c3.9,0.2,5.2-0.8,8.3-1.8c2-0.7,2.9,3.4-1.2,4.9
	C113.7,121.2,111.8,121.5,111.8,121.5z"/>
<g id="hsXBAZ_3_">
	<g>
		<path style="fill-rule:evenodd;clip-rule:evenodd;fill:#0365C4;" d="M482.7,100.4c-2.1,0.2-4.2,0.4-6.3,0.8c-2,0.3-3.9,0.9-5.8,1.1c-1.7,0.2-3.6,0.2-5.3-0.1
			c-2.9-0.7-3.9-2.6-3.8-5.5c0.5-8.8,0.9-17.5,1.4-26.3c0.1-0.9,0-1.9,0.4-2.6c0.5-0.9,1.5-2,2.3-2.1c0.6-0.1,2,1.2,2.1,2
			c0.5,3.5,0.7,6.9,0.8,10.4c0.1,5.4,0,10.8,0,16.2c4.7,0,9.4,0,14.2,0C482.7,96.3,482.7,98.3,482.7,100.4z"/>
		<path style="fill-rule:evenodd;clip-rule:evenodd;fill:#0365C4;" d="M308.5,70.4c-1.2,1.8-2.4,3.5-3.5,5.4c-1.3,2.1-2.4,4.4-3.9,6.5c-2.1,2.9-3.7,2.7-5.7-0.1
			c-1.9-2.6-3.9-5.1-6-7.6c-0.6-0.7-1.4-1.2-2.4-2c-0.3,5.3-0.7,10.2-1,15c-0.1,2.5-0.1,5-0.4,7.4c-0.2,1.3-0.9,2.6-1.7,3.6
			c-0.9,1.2-2,0.8-2.4-0.6c-0.3-1.2-0.6-2.6-0.5-3.8c0.5-8.8,1.1-17.7,1.8-26.5c0.2-3.1,2.4-4.2,5-2.4c2.2,1.5,4.1,3.6,6.1,5.5
			c1.2,1.1,2.3,2.2,3.6,3.5c1.3-1.4,2.6-2.7,3.8-4.1c1.7-1.8,3.2-3.8,5-5.5c0.9-0.9,2.1-1.6,3.3-2.1c3-1.2,5.5,0.3,5.6,3.5
			c0.4,9.8,0.6,19.6,0.8,29.4c0,1.8-0.1,3.6-0.3,5.3c-0.2,2-1.7,3.4-3.2,3.3c-1.9-0.1-3.1-1.1-3.1-3.1c-0.1-4-0.2-7.9-0.3-11.9
			c-0.1-5.6,0-11.1,0-16.7c0-0.6-0.1-1.2-0.1-1.8C308.9,70.5,308.7,70.4,308.5,70.4z"/>
		<path style="fill-rule:evenodd;clip-rule:evenodd;fill:#0365C4;" d="M220.9,84.8c0.7-1.4,1.4-2.8,2.1-4.2c0.5-1,0.8-2.1,1.5-2.9c1-1.1,2.2-2.5,3.5-2.8c1.8-0.4,1.8,1.8,2.5,3
			c2.3,4.3,4.5,8.6,6.8,12.9c0.2,0,0.4,0,0.6-0.1c0.3-0.8,0.6-1.6,0.8-2.4c1.3-5.8,2.4-11.5,3.7-17.3c0.4-1.7,1-3.3,1.6-4.9
			c0.5-1.3,1.3-2.4,2.9-2c1.5,0.3,1.5,1.7,1.3,2.9c-0.7,4.3-1.5,8.6-2.2,12.9c-0.9,5.3-1.9,10.5-2.8,15.8c-0.3,1.8-0.7,3.7-2.8,4.2
			c-2.2,0.5-4-0.4-5.1-2.2c-2.1-3.3-4-6.7-5.9-10.1c-0.5-0.9-1.1-1.8-1.8-3c-1.1,2.7-2.1,5.2-3.2,7.6c-0.7,1.5-1.4,3-2.3,4.3
			c-1.8,2.5-3.8,2.3-4.9-0.5c-0.8-2-1.5-4.2-1.7-6.3c-0.8-7.1-1.6-14.2-0.6-21.4c0.1-0.9,0.2-1.9,0.6-2.6c0.5-0.8,1.5-1.7,2.2-1.7
			c0.8,0.1,1.8,1.1,2.2,1.9C220.1,67,220,68,220,69c0,5.2,0,10.5,0,15.7C220.3,84.8,220.6,84.8,220.9,84.8z"/>
		<path style="fill-rule:evenodd;clip-rule:evenodd;fill:#0365C4;" d="M259.1,66.9c0.5,2.5,1,4.9,1.5,7.5c2.8,0,5.5-0.1,8.2,0c1.7,0.1,3.3,0.7,3.4,2.8c0.1,1.9-0.9,3.3-2.8,3.8
			c-2.2,0.5-4.4,0.8-6.7,1.2c-0.9,0.1-1.7,0.3-2.9,0.5c0.4,3.9,0.7,7.6,1.1,11.4c0,0.4,1.1,1,1.6,1c2.5-0.2,4.9-0.7,7.3-1
			c1.1-0.1,2.3-0.1,3.4,0.1c1.4,0.3,2.4,1.2,2.3,2.7c-0.1,1.6-0.5,3.1-2.5,3.6c-4.3,1.1-8.6,2.4-13.1,2c-3.3-0.3-4.7-1.3-5.4-4.5
			c-0.2-0.7-0.3-1.5-0.4-2.2c-0.7-8.7-1.4-17.4-2-26.1c-0.1-2.1,0-4.3,0.6-6.3c0.3-1,1.5-2.2,2.6-2.6c4.5-1.9,9.4-2.1,14.2-1.5
			c2.7,0.3,4.1,1.7,3.9,3.6c-0.2,2.2-2.1,3.8-4.6,3.8c-2.4,0-4.8,0-7.2,0C260.9,66.6,260.1,66.8,259.1,66.9z"/>
		<path style="fill-rule:evenodd;clip-rule:evenodd;fill:#0365C4;" d="M427.5,79.9c0.2,7.3-2.2,13.5-7.1,18.6c-2.9,3.1-9.8,4-13.4,1.7c-3.2-2.1-4.4-5.5-4.6-9
			c-0.4-8.3,2.4-15.5,7.9-21.6c4-4.5,11-3.8,14.1,0.8C426.4,73.4,428.1,76.3,427.5,79.9z M408.4,89.2c-0.2,4.1,2.8,6.2,6.6,4.5
			c1.3-0.6,2.5-1.6,3.3-2.7c2.9-3.9,3.4-8.6,3.4-13.3c0-2-1.7-3.4-3.4-3c-1.8,0.5-4,1.3-5.1,2.6C410.4,80.8,408.6,84.7,408.4,89.2z"
			/>
		<path style="fill-rule:evenodd;clip-rule:evenodd;fill:#0365C4;" d="M456.4,80c0.2,7.3-2.3,13.5-7.2,18.6c-2.9,3.1-9.9,3.9-13.4,1.5c-3.1-2-4.3-5.4-4.5-8.9
			c-0.4-8.3,2.4-15.6,8-21.8c4-4.5,10.9-3.6,13.9,0.8C455.2,73.3,457,76.3,456.4,80z M437.2,89.2c-0.2,4.1,2.8,6.2,6.6,4.5
			c1.3-0.6,2.5-1.6,3.3-2.7c2.9-3.9,3.4-8.6,3.4-13.3c0-2-1.7-3.4-3.4-3c-1.8,0.5-4,1.3-5.1,2.6C439.2,80.8,437.4,84.7,437.2,89.2z"
			/>
		<path style="fill-rule:evenodd;clip-rule:evenodd;fill:#0365C4;" d="M391.9,85c-3.5,0.8-6.8,1.6-10,2.3c-1.6,0.3-2.3,1.2-2.2,2.9c0.1,2.7,0,5.5-0.1,8.2
			c-0.1,1.1-0.3,2.2-0.8,3.1c-0.4,0.7-1.5,1.4-2.2,1.3c-0.7-0.1-1.8-1.1-1.9-1.7c-0.3-2.6-0.5-5.3-0.3-8c0.4-7.6,1-15.2,1.6-22.8
			c0.1-1.2,0.3-2.3,0.6-3.4c0.3-1.2,1.1-2.4,2.5-1.8c0.8,0.4,1.8,1.6,1.9,2.5c0.2,3.5,0.1,7,0.1,10.5c0,0.7,0,1.4,0,2.2
			c0.6,0,1.1,0,1.5-0.1c2.5-0.9,5-1.8,7.6-2.6c1.3-0.4,1.8-1.2,1.8-2.6c0-2.1,0-4.1,0.1-6.2c0-0.9,0.1-1.8,0.5-2.6
			c0.5-1.4,1.5-2.4,3.1-2.3c1.7,0.2,1.9,1.6,1.9,2.9c0.1,1.4,0,2.9-0.1,4.3c-0.2,7.5-0.3,15-0.6,22.4c-0.1,2.6-0.5,5.2-0.9,7.8
			c-0.2,1.4-0.9,2.6-2.5,2.4c-1.7-0.1-2-1.4-1.9-2.9c0.1-4.6,0.3-9.2,0.4-13.8C392,86.3,391.9,85.6,391.9,85z"/>
		<path style="fill-rule:evenodd;clip-rule:evenodd;fill:#0365C4;" d="M196.6,96.8c1.1,0.1,2,0.2,2.8,0.2c3.4,0.1,6.7,0.2,10.1,0.4c1.3,0.1,2.5,0.5,2.7,2c0.2,1.5-0.5,2.6-1.9,3.1
			c-1.2,0.4-2.4,0.7-3.6,0.7c-5.5,0.2-11,0.4-16.5,0.5c-3.8,0.1-5.4-2.7-3.4-6c4.6-7.8,9.2-15.6,13.7-23.4c0.4-0.6,0.6-1.3,1.1-2.3
			c-2.5,0-4.7,0-6.9,0c-1.4,0-2.9,0.1-4.3,0c-2.1-0.2-2.9-1.2-2.8-3.3c0-1.9,1.2-2.8,2.9-2.8c4,0,8.1-0.1,12.1,0.3
			c5.4,0.6,7.2,4,4.8,8.9c-2.8,5.8-5.9,11.5-8.8,17.2C198,93.7,197.4,95.1,196.6,96.8z"/>
		<path style="fill-rule:evenodd;clip-rule:evenodd;fill:#0365C4;" d="M330.4,102.4c-1.7-0.3-3.5-0.2-5-0.9c-1.6-0.6-3-1.8-4.3-3c-1.1-1-0.9-2.4-0.1-3.5c0.9-1.2,2.1-1.5,3.5-0.9
			c1.5,0.6,3,1.5,4.5,1.8c4.5,0.9,7.3-2.1,5.8-6.4c-1-2.7-2.7-5.5-4.8-7.5c-4.6-4.5-4.2-9.5-2-14.6c2.1-5,6.7-6.5,11.8-6.9
			c1.4-0.1,2.8-0.1,4.1,0.4c1.4,0.5,2.9,1.4,3.8,2.5c0.6,0.7,0.4,2.5-0.1,3.4c-0.4,0.6-1.9,1-2.9,0.8c-1.6-0.2-3.1-0.9-4.7-1.3
			c-3-0.7-5,0.5-5.7,3.5c-0.8,3.6-0.4,6.8,2.2,9.8c3,3.4,4.6,7.4,4.9,12C341.6,98.7,337.4,102.7,330.4,102.4z"/>
		<path style="fill-rule:evenodd;clip-rule:evenodd;fill:#0365C4;" d="M361.9,104.1c-5-0.3-7.7-3-9.9-6.4c-6-9-4.8-22.1,2.7-30.4c1.2-1.3,2.4-2.7,3.7-3.9c1.6-1.5,3.5-2.3,5.8-1.7
			c2.8,0.7,3.8,3.7,1.8,5.9c-0.5,0.5-1.1,1-1.8,1.4c-6,3-7.8,8.5-8.5,14.5c-0.3,2.8,0.2,5.5,1.7,7.9c1.4,2.3,3.4,3.2,6.1,2.8
			c1.7-0.2,3.6-0.7,4.8,1c1.2,1.8,0.4,3.6-0.6,5.2C366.3,102.8,364,103.8,361.9,104.1z"/>
	</g>
</g>
<g id="LxZo69_3_">
	<g>
		<path style="fill-rule:evenodd;clip-rule:evenodd;fill:#FF5C00;" d="M318.9,113.8c1.6,0.6,1.9,2,1.9,3.5c0,2.5,0,4.9,0,7.6c1.6-1,3.1-1.9,4.7-3c2.2-1.5,4.4-3.1,6.6-4.5
			c0.4-0.3,1.1-0.5,1.6-0.4c1.2,0.1,1.5,1.2,0.7,2.1c-1.2,1.3-2.6,2.6-4,3.7c-1.6,1.1-2.2,2.1-1.5,4.2c1.5,4.1,2.6,8.3,3.7,12.5
			c0.4,1.4,0.5,3,0.4,4.4c-0.1,0.7-0.9,1.9-1.4,1.9c-0.7,0.1-2-0.5-2.3-1.2c-0.9-1.7-1.7-3.6-2.1-5.6c-0.8-3.3-1.3-6.6-1.9-9.9
			c-0.1-0.7-0.3-1.4-0.5-2.3c-2.3,1.1-3.9,2.7-4.4,5.1c-0.4,2.2-0.5,4.5-0.8,6.7c-0.1,1.3-0.2,2.5-0.4,3.8c-0.2,0.9-0.6,1.8-1.7,1.8
			c-1.2,0-1.6-1.1-1.7-2c-0.2-2.2-0.3-4.4-0.4-6.5c0-4.9-0.1-9.8,0.1-14.7c0.1-1.8,0.5-3.6,1-5.3c0.2-0.8,1.1-1.4,1.6-2
			C318.3,113.8,318.6,113.8,318.9,113.8z"/>
		<path style="fill-rule:evenodd;clip-rule:evenodd;fill:#FF5C00;" d="M226,140.5c1.2-1.8,2.1-1.9,4-0.9c0.4,0.2,0.9,0.5,1.3,0.6c1.4,0.4,2.8,0.5,4-0.6c1.2-1.1,1.2-2.6,0.7-3.8
			c-0.9-1.9-2-3.6-3.4-5.2c-4.4-5.3-2.1-12.7,4.7-14.1c1.6-0.4,3.4-0.2,5.1,0c1.2,0.1,2.2,0.9,2.6,2.1c0.5,1.4-0.4,2.7-1.9,2.5
			c-1.3-0.2-2.5-0.6-3.8-0.9c-2-0.4-3.3,0.4-3.7,2.4c-0.6,2.5-0.1,4.7,1.6,6.8c2.4,3,3.8,6.5,3,10.5c-0.5,2.6-2.3,4.3-4.8,4.6
			c-2.2,0.2-4.5-0.1-6.7-0.6c-1-0.2-1.8-1.5-2.7-2.3C226,141.3,226,140.9,226,140.5z"/>
		<path style="fill-rule:evenodd;clip-rule:evenodd;fill:#FF5C00;" d="M264.2,126.1c0-1.3,0-2.6,0-3.9c0-1.1,0.1-2.2,0.4-3.2c0.2-1,0.9-1.9,2-1.7c0.6,0.2,1.3,1.2,1.4,1.9
			c0.3,1.6,0.4,3.3,0.4,5c0.1,5.5,0.1,10.9,0,16.4c0,1.4-0.4,2.8-0.8,4.1c-0.3,1-1.2,1.5-2.3,1.2c-1.2-0.3-1.6-1.1-1.6-2.2
			c0.1-3,0.3-6.1,0.5-9.1c0.1-1.3-0.4-2.3-1.4-3c-3-2.2-6-4.3-9.3-6.6c0,2.5,0,5.1,0,7.6c0,3.5,0.1,7.1,0.1,10.6
			c0,1.8-0.6,2.6-1.5,2.6c-1.1,0-2-0.9-2.2-2.5c-0.2-1.9-0.2-3.8-0.3-5.7c-0.3-5.7-0.6-11.4-0.7-17c0-1,0.3-2.1,0.8-3.1
			c0.4-0.9,1.2-1.1,2.2-0.4c2.4,1.8,4.8,3.6,7.2,5.4c1.6,1.2,3.2,2.5,4.7,3.8C264,126.1,264.1,126.1,264.2,126.1z"/>
		<path style="fill-rule:evenodd;clip-rule:evenodd;fill:#FF5C00;" d="M297.2,132.2c0,1.9,0,3.7,0,5.5c0,1.9-0.1,3.8-0.2,5.7c0,0.5-0.2,1.1-0.5,1.5c-0.5,1.1-1.6,1.2-2.2,0.2
			c-0.5-0.9-0.8-1.9-0.9-2.9c-0.2-4.8-0.2-9.5-0.3-14.3c0-2.7-0.1-5.4,0-8.2c0.1-2.1,0.9-2.9,3.1-3c2.8-0.1,5.7-0.2,8.5,0.1
			c2.9,0.4,4.2,2.3,3.9,5.2c-0.2,2.5-0.8,4.8-2.7,6.5c-0.6,0.6-0.5,1-0.2,1.7c1.2,2.3,2.5,4.7,3.5,7.1c0.7,1.6,1.1,3.3,1.4,5
			c0.2,1.1-0.4,2.2-1.7,2.5c-1.3,0.3-2.2-0.4-2.7-1.6c-0.8-1.7-1.3-3.5-2.1-5.2c-0.8-1.8-1.8-3.5-2.7-5.3c-0.5-0.9-1.1-1.3-2.2-1
			C298.8,132,298,132,297.2,132.2z M297.2,128.3c2.4-0.1,4.6-0.4,6.5-1.9c0.5-0.4,0.9-1,1.1-1.5c0.6-1.4,0.1-3.4-1.1-3.6
			c-1.7-0.4-3.5-0.4-5.2-0.4c-0.3,0-0.8,0.7-0.9,1C297.4,123.9,297.3,126,297.2,128.3z"/>
		<path style="fill-rule:evenodd;clip-rule:evenodd;fill:#FF5C00;" d="M341.8,120.6c0.4,1.8,0.7,3.4,1,4.9c2.1,0.1,4,0.2,5.9,0.3c1,0.1,2,0.4,2.1,1.7c0.1,1.3-0.4,2.4-1.7,2.7
			c-1.5,0.4-3,0.6-4.5,0.8c-0.6,0.1-1.2,0.2-2.2,0.4c0.3,2.7,0.5,5.3,0.8,8c0,0.2,0.7,0.5,1,0.5c1.8-0.2,3.6-0.6,5.4-0.7
			c0.8-0.1,1.8,0,2.5,0.4c0.5,0.3,1.1,1.2,1.1,1.8c-0.1,0.7-0.6,1.8-1.2,2c-3.2,1.1-6.4,2-9.9,1.6c-2-0.3-2.9-1.2-3.3-3.4
			c-0.1-0.5-0.2-1.1-0.2-1.6c-0.3-4.2-0.6-8.3-0.9-12.5c-0.2-2.2-0.5-4.3-0.5-6.5c-0.1-3.2,0.7-4.1,3.8-5c2.8-0.8,5.5-0.9,8.4-0.5
			c1.7,0.3,2.5,1.1,2.4,2.4c-0.1,1.4-1.3,2.5-2.8,2.6c-1.6,0-3.3,0-4.9,0C343.3,120.4,342.7,120.5,341.8,120.6z"/>
		<path style="fill-rule:evenodd;clip-rule:evenodd;fill:#FF5C00;" d="M411.7,120.6c0.4,1.8,0.7,3.4,1,4.9c2,0.1,3.9,0.2,5.8,0.3c1.1,0.1,2.1,0.4,2.2,1.8c0.1,1.3-0.5,2.3-1.8,2.6
			c-2.1,0.5-4.2,0.8-6.6,1.2c0.2,2.6,0.5,5.3,0.8,7.9c0,0.2,0.7,0.5,1,0.5c1.8-0.2,3.5-0.5,5.3-0.7c0.3,0,0.6-0.1,0.9-0.1
			c2,0,3.3,2.2,2.2,3.9c-0.2,0.3-0.6,0.5-0.9,0.6c-2.9,0.7-5.7,1.7-8.8,1.4c-2.7-0.2-3.8-1-4.1-3.7c-0.4-4.6-0.7-9.2-1.1-13.8
			c-0.2-2.2-0.5-4.4-0.5-6.7c-0.1-3,0.8-3.9,3.7-4.8c2.8-0.8,5.5-0.9,8.4-0.5c1.8,0.3,2.5,1,2.5,2.3c-0.1,1.5-1.3,2.6-2.9,2.6
			c-1.6,0-3.2,0-4.8,0C413.3,120.4,412.7,120.5,411.7,120.6z"/>
		<path style="fill-rule:evenodd;clip-rule:evenodd;fill:#FF5C00;" d="M288.8,129.5c0.1,5-1.5,9.3-4.9,12.8c-2.1,2.1-6.8,2.7-9.2,1c-2.1-1.5-2.9-3.8-3-6.3
			c-0.2-5.4,1.7-10.2,5.2-14.4c2.9-3.4,7.7-2.8,9.8,0.4C288.1,125,289.3,127,288.8,129.5z M284.8,129.8c0-0.7,0.1-1.5,0-2.2
			c-0.2-1.1-1.1-1.9-2.1-1.6c-1.3,0.3-2.8,0.8-3.5,1.8c-2,2.5-3.3,5.5-3.3,8.9c0,1.5,0.9,2.4,2.4,2.6c2.1,0.2,3.5-0.7,4.6-2.3
			C284.2,134.7,284.7,132.3,284.8,129.8z"/>
		<path style="fill-rule:evenodd;clip-rule:evenodd;fill:#FF5C00;" d="M403.9,118.5c-0.8,6.4-1.5,12.9-2.4,19.3c-0.5,3.4-2.5,5.7-5.9,6.6c-4.4,1.1-9.7-3.2-9.4-7.8
			c0-0.5,0.4-1.4,0.8-1.5c0.5-0.1,1.4,0.2,1.8,0.6c0.6,0.6,0.9,1.5,1.3,2.3c0.7,1.5,2.1,2.4,3.5,2.3c1.7-0.1,3.2-1.1,3.5-2.8
			c0.5-2.4,0.9-4.9,1-7.4c0.2-3.7,0.2-7.4,0.3-11.2c0-0.8,0.2-1.5,0.5-2.2c0.4-1.1,1.1-2,2.5-1.7c1.3,0.3,2,1.1,2.1,2.6
			c0,0.3,0,0.5,0,0.8C403.7,118.5,403.8,118.5,403.9,118.5z"/>
		<path style="fill-rule:evenodd;clip-rule:evenodd;fill:#FF5C00;" d="M377.4,123.6c-1.1,0.2-1.9,0.4-2.8,0.4c-0.9,0-1.8,0-2.7-0.2c-1.4-0.4-1.8-1.8-0.8-2.8
			c0.8-0.8,1.9-1.6,3-1.7c4.7-0.8,9.3-1.3,14-1.9c0.4-0.1,0.9,0,1.4,0c1,0,1.9,0.4,2.2,1.4c0.2,1.1-0.3,2-1.2,2.3
			c-2.1,0.7-4.2,1.4-6.3,1.9c-2.8,0.6-2.9,0.5-3,3.2c-0.2,4.3-0.2,8.5-0.2,12.8c0,1.3-0.1,2.5-0.2,3.8c-0.1,0.8-0.2,1.7-1.3,1.8
			c-1.1,0.1-1.5-0.7-1.7-1.6c-0.2-1-0.4-2.1-0.3-3.1c0.1-4.6,0.2-9.3,0.3-13.9C377.5,125.3,377.4,124.5,377.4,123.6z"/>
		<path style="fill-rule:evenodd;clip-rule:evenodd;fill:#FF5C00;" d="M361.5,139.6c1.7-0.1,3.4-0.2,5.1-0.3c1.4,0,2.9,0,4.3,0.1c0.9,0.1,1.9,0.4,1.8,1.5
			c-0.1,0.8-0.6,1.8-1.2,2.4c-0.4,0.4-1.3,0.5-2,0.6c-2.2,0.4-4.4,0.7-6.6,1c-1.1,0.1-2.3,0.2-3.4-0.1c-2.1-0.5-2.9-1.7-2.8-3.8
			c0.3-5.9,0.6-11.9,0.9-17.8c0-0.6,0-1.3,0.3-1.9c0.3-0.6,0.9-1.4,1.5-1.5c0.5,0,1.5,0.8,1.5,1.3c0.3,2.3,0.5,4.6,0.5,6.9
			c0.1,3.6,0,7.2-0.1,10.8C361.4,138.9,361.5,139.2,361.5,139.6z"/>
	</g>
</g>
</svg>
